# xmcd CD database file
#
# Track frame offsets:
#	150
#	18032
#	35507
#	56357
#	74680
#	90152
#	109157
#	130565
#	154735
#	176807
#	196112
#	213745
#
# Disc length: 3180 seconds
#
# Revision: 0
# Processed by: cddbd v1.5.2PL0 Copyright (c) Steve Scherf et al.
# Submitted via: CDex 1.51
#
DISCID=9a0c6a0c
DTITLE=GROOVE RECORDS - Garden Angcls
DYEAR=1900
DGENRE=New Age
TTITLE0=Druids in the Glen
TTITLE1=Oh Load We Pray 
TTITLE2=Gloria
TTITLE3=Farewell to Tarwathie
TTITLE4=Malinconico Autunno
TTITLE5=I'd Love You To Want Me
TTITLE6=The Flowers of the Forest
TTITLE7=Maclain of Glencoe
TTITLE8=Smile in Your Sleep
TTITLE9=Where Eagles Fly
TTITLE10=Let Love Make You Strong
TTITLE11=Guilin
EXTD=
EXTT0=
EXTT1=
EXTT2=
EXTT3=
EXTT4=
EXTT5=
EXTT6=
EXTT7=
EXTT8=
EXTT9=
EXTT10=
EXTT11=
PLAYORDER=
